<svg xmlns="http://www.w3.org/2000/svg" width="304" height="304" fill="none" viewBox="0 0 304 304"><path fill="#000" stroke="#000" stroke-linecap="square" stroke-width="2.684" d="M296.702 270.922H293.432V244.464L277.691 220.721H277.532V80.6651H277.691L298.171 54.2799H298.301V9.1406C298.301 5.1954 296.028 2 293.229 2H264.896V26.5344L248.994 33.6303L234.341 26.5344V2H199.419V26.5344L184.763 33.6303L168.863 26.5344V2H140.535C137.734 2 135.465 5.19526 135.465 9.1406V54.2799H135.522L156.074 80.6651V220.721L140.332 244.464V270.922H137.059C134.13 270.922 131.756 274.122 131.756 278.071V294.859C131.756 298.8 134.13 302 137.059 302H296.695C299.628 302 302 298.8 302 294.859V278.071C302 274.163 299.625 270.937 296.693 270.937L296.702 270.922Z"/><path stroke="#fff" stroke-linecap="round" stroke-width="2.684" d="M145.52 270.922H287.08"/><path stroke="#fff" stroke-linecap="round" stroke-width="2.684" d="M146.144 244.474H286.459"/><path stroke="#fff" stroke-linecap="round" stroke-width="2.684" d="M271.493 220.753H159.865"/><path stroke="#fff" stroke-linecap="round" stroke-width="2.684" d="M160.486 80.6963H272.117"/><path stroke="#fff" stroke-linecap="round" stroke-width="2.684" d="M142.403 54.2939H293.938"/><path fill="#fff" stroke="#000" stroke-width="3.495" d="M168.198 37.1019C168.198 37.1019 164.545 9.01956 164.545 5.10212C164.545 1.18469 161.809 0.529467 159.067 5.75541C156.327 10.9791 144.002 36.4485 144.002 36.4485L168.174 37.0986L168.198 37.1019Z"/><path fill="#fff" stroke="#000" stroke-width="3.495" d="M4.3936 252.503C5.63184 239.839 7.32667 227.765 9.38654 216.287L16.0021 212.511L11.5865 204.952C14.1015 192.812 17.0267 181.38 20.2409 170.634L26.5011 168.104L23.4056 160.532C26.7681 150.312 30.3814 140.78 34.1298 131.904L39.9671 130.227L37.8735 123.334C42.0786 114.055 46.3978 105.581 50.683 97.8891L56.8612 96.9208L55.2114 90.039C60.2254 81.6158 65.1123 74.2897 69.6306 68.0311L75.8105 67.5343L74.7299 61.2021C85.7516 46.9367 93.5392 39.9946 93.5392 39.9946L107.541 46.0921C107.541 46.0921 114.235 40.866 119.715 35.6423C119.715 35.6423 123.365 18.2278 124.581 8.65003C125.802 -0.927717 129.452 3.42395 130.669 6.03707C131.89 8.65003 144.519 28.6729 144.519 28.6729C144.519 28.6729 152.075 27.1963 157.456 28.6729C165.366 30.8557 169.019 38.4717 178.155 50.8786C184.811 59.9297 188.805 67.863 191.087 76.348C193.369 84.8376 190.632 84.8376 191.542 92.6743C192.46 100.511 217.112 159.284 219.847 166.467C222.592 173.651 229.206 195.62 216.198 209.567C212.548 213.487 209.805 215.451 207.526 216.751C207.526 216.751 203.871 215.451 202.504 212.838C202.26 212.371 202.134 212.086 202.075 211.927C202.031 211.753 202.007 211.741 202.075 211.927C202.215 212.436 202.533 214.345 201.132 216.751C198.849 220.673 195.917 220.38 194.285 220.673C191.849 221.11 187.437 218.064 183.783 210.223C180.129 202.386 177.848 199.771 175.106 195.2C172.371 190.63 157.26 180.516 151.365 166.467C149.996 163.208 146.801 164.507 144.519 167.122C142.237 169.735 129.452 170.391 123.976 157.324C123.976 157.324 121.386 191.679 132.193 215.449C149.996 254.632 180.13 264.421 189.266 301H2C2 288.361 2.46636 276.225 3.30903 264.552L9.53361 259.855L4.32032 252.6L4.3936 252.503Z"/><path stroke="#000" stroke-width="2.684" d="M100.851 54.8142C100.851 54.8142 21.1136 140.153 21.1136 294.268"/><path stroke="#000" stroke-width="2.684" d="M202.086 211.945C202.02 211.756 202.02 211.756 202.086 211.945V211.945Z"/><path stroke="#000" stroke-width="2.684" d="M117.284 114.009C115.763 138.383 123.678 155.798 123.982 157.32C123.982 157.32 104.803 143.175 102.979 124.449"/><path stroke="#000" stroke-width="2.684" d="M123.969 157.347C123.969 157.347 111.182 166.279 101.749 160.618"/><path stroke="#000" stroke-width="2.684" d="M202.514 212.839C202.514 212.839 193.99 197.164 191.552 189.981"/><path stroke="#000" stroke-width="2.684" d="M149.986 67.2269C149.986 67.2269 164.025 67.3212 168.707 78.3253C175.096 93.3478 167.794 95.3051 167.794 95.3051C167.794 95.3051 160.49 98.5736 155.467 88.7775C150.12 78.3461 154.553 71.7978 154.553 71.7978L150.009 67.2236L149.986 67.2269Z"/><path stroke="#000" stroke-width="2.684" d="M218.026 178.875C212.999 176.918 209.805 177.573 207.527 179.531C207.527 179.531 209.805 169.734 205.7 161.242C201.587 152.753 194.741 152.097 188.806 135.773"/><path stroke="#000" stroke-width="2.684" d="M84.7134 76.3656L76.0521 68.5317"/><path stroke="#000" stroke-width="2.684" d="M66.9066 104.446L58.2289 98.5718"/><path stroke="#000" stroke-width="2.684" d="M50.9311 137.044L40.8866 131.156"/><path stroke="#000" stroke-width="2.684" d="M38.1433 174.306L27.6444 169.077"/><path stroke="#000" stroke-width="2.684" d="M28.102 218.068L17.142 213.499"/><path stroke="#000" stroke-width="2.684" d="M22.1643 262.49L10.7529 260.512"/><path fill="#fff" d="M288.082 295.736L298 295.736L298 303.267L187.5 303.267L179.5 282.489C190.559 282.091 200.226 280.178 208.32 277.617C211.834 276.505 214.553 275.201 216.661 273.886L216.669 270.886C216.68 266.468 220.297 262.562 224.744 262.574L225.751 262.576C230.199 262.588 233.795 266.512 233.783 270.93L233.781 271.709C246.755 273.827 257.162 283.657 260.302 295.665L272.982 295.697L273.012 283.697L288.113 283.736L288.082 295.736Z"/><path fill="#000" d="M167.323 277.76L167.311 282.31C171.541 282.582 180 282.5 180 282.5C181 283 187.5 303 187.5 303L1.00002 302.5L2.50003 264L17.6501 253.044C18.5517 250.047 21.7023 247.055 25.4543 247.064L34.5147 247.088C38.9624 247.099 42.5584 251.023 42.5471 255.441L42.5427 257.152C45.9069 255.283 57.1953 250.13 68.3129 257.822C79.2717 265.404 108.069 279.249 133.092 278.725L133.095 277.672C133.106 273.254 136.722 269.348 141.17 269.36L142.176 269.362C146.624 269.374 150.221 272.965 150.209 277.383C150.221 272.965 153.836 269.392 158.284 269.403L159.29 269.406C163.738 269.417 167.334 273.342 167.323 277.76Z"/></svg>