<?xml version="1.0" standalone="no"?>
<!DOCTYPE svg PUBLIC "-//W3C//DTD SVG 20010904//EN"
 "http://www.w3.org/TR/2001/REC-SVG-20010904/DTD/svg10.dtd">
<svg version="1.0" xmlns="http://www.w3.org/2000/svg"
 width="700.000000pt" height="700.000000pt" viewBox="0 0 700.000000 700.000000"
 preserveAspectRatio="xMidYMid meet">
<metadata>
Created by potrace 1.11, written by Peter Selinger 2001-2013
</metadata>
<g transform="translate(0.000000,700.000000) scale(0.100000,-0.100000)"
fill="#000000" stroke="none">
<path d="M3746 6993 c-3 -4 -127 -7 -275 -8 -268 -1 -269 -1 -305 -25 -33 -23
-52 -55 -74 -125 -9 -27 -10 -28 -18 -10 -18 48 -75 125 -102 139 -43 22 -82
8 -109 -39 -20 -35 -30 -80 -48 -210 -8 -59 -14 -94 -25 -150 -6 -27 -13 -63
-15 -80 -30 -184 -54 -277 -77 -303 -20 -21 -159 -141 -211 -181 -18 -14 -18
-14 -133 35 -151 65 -198 84 -209 84 -24 0 -314 -318 -438 -481 -26 -35 -27
-40 -18 -95 5 -33 8 -60 7 -61 0 0 -26 -3 -56 -6 -45 -5 -59 -11 -78 -34 -33
-41 -242 -356 -292 -441 -42 -71 -42 -73 -30 -120 22 -86 24 -80 -36 -88 -51
-6 -57 -10 -81 -47 -37 -59 -204 -385 -253 -495 l-41 -93 15 -47 c27 -83 27
-82 -33 -101 l-55 -16 -43 -103 c-76 -183 -213 -561 -213 -589 0 -8 6 -29 14
-46 31 -71 39 -98 30 -107 -5 -5 -31 -17 -59 -28 l-50 -20 -33 -108 c-34 -115
-131 -497 -148 -584 -3 -14 -10 -50 -17 -80 l-13 -55 44 -75 c49 -84 52 -76
-40 -128 -47 -26 -52 -35 -63 -117 -2 -11 -13 -78 -25 -150 -22 -138 -26 -161
-35 -240 -3 -27 -10 -79 -15 -115 -5 -36 -12 -96 -15 -135 -4 -38 -9 -81 -11
-95 -3 -14 -6 -30 -6 -35 -1 -6 22 -43 50 -82 29 -39 52 -73 52 -76 0 -2 -26
-24 -57 -47 -32 -24 -59 -44 -61 -46 -2 -1 -5 -28 -8 -61 -2 -32 -6 -91 -9
-132 -16 -226 -23 -702 -10 -707 12 -4 2349 -12 4984 -17 1774 -3 1855 -3
1890 15 39 19 69 61 86 118 7 20 10 131 10 265 -1 209 -3 234 -22 276 -28 62
-86 106 -135 102 l-38 -3 -1 52 c0 29 0 162 0 295 l0 243 -184 277 -184 278 0
1595 0 1596 219 285 c121 156 229 291 240 301 19 16 20 30 20 560 0 361 -4
556 -11 583 -13 46 -50 99 -82 117 -16 9 -119 12 -377 13 l-355 0 -5 -289 -5
-289 -165 -73 -164 -73 -121 58 c-66 31 -135 64 -152 72 -18 7 -33 21 -34 29
0 8 -1 139 -2 290 l-2 275 -430 0 -430 0 -2 -285 c-1 -157 -3 -288 -3 -292 0
-5 -4 -8 -9 -8 -5 0 -75 -32 -154 -71 l-145 -70 -66 31 c-36 17 -108 49 -159
71 -50 22 -96 44 -100 48 -4 4 -8 136 -8 292 l0 284 -67 0 c-37 -1 -74 2 -83
6 -9 5 -19 5 -23 2z m-702 -3877 c29 -14 86 -29 125 -34 87 -10 149 7 205 56
47 41 64 40 82 -4 9 -20 36 -71 61 -112 l46 -76 1 -501 c1 -281 -3 -509 -8
-520 -5 -11 -54 -89 -110 -173 -117 -176 -92 -175 -197 -7 -117 187 -203 372
-254 550 -28 99 -70 313 -80 415 -4 36 -9 76 -11 90 -3 14 -7 117 -11 230 l-6
205 52 -47 c29 -26 76 -58 105 -72z"/>
</g>
</svg>
